<?xml version="1.0" encoding="utf-8"?><svg viewBox="0 0 96 86" xmlns="http://www.w3.org/2000/svg" xmlns:xlink="http://www.w3.org/1999/xlink"><style>:root>svg{display:none}:root>svg:target{display:block}</style><svg fill="none" viewBox="0 0 30 17" id="arrow-bottom" xmlns="http://www.w3.org/2000/svg"><path d="M1 1.706l14 14 14-14" stroke="#2F2F51" stroke-width="2" stroke-linecap="round" stroke-linejoin="round"/></svg><svg fill="none" viewBox="0 0 40 21" id="arrow-right" xmlns="http://www.w3.org/2000/svg"><path d="M23.385 1.75l14.615 9-14.615 9M0 10.75h37.026" stroke="#fff" stroke-width="2"/></svg><svg fill="none" viewBox="0 0 30 17" id="arrow-top" xmlns="http://www.w3.org/2000/svg"><path d="M1 15.706l14-14 14 14" stroke="#2F2F51" stroke-width="2" stroke-linecap="round" stroke-linejoin="round"/></svg><svg fill="none" viewBox="0 0 23 20" id="calculation" xmlns="http://www.w3.org/2000/svg"><path d="M21.5.91h-20v17.931h20V.911zM11.155 9.876v8.965M1.5 9.876h19.31M6.328 12.634v3.449M4.259 14.013h4.138M13.914 13.324h4.827M13.914 15.393h4.827" stroke="#FEFEFE" stroke-width="1.367" stroke-miterlimit="22.926" stroke-linecap="round" stroke-linejoin="round"/></svg><svg fill="none" viewBox="0 0 18 18" id="close-black" xmlns="http://www.w3.org/2000/svg"><path d="M17.25 1l-16 16M17.25 1l-16 16M1.25 1l16 16M1.25 1l16 16" stroke="#000" stroke-width="2"/></svg><svg fill="none" viewBox="0 0 23 23" id="close-icon" xmlns="http://www.w3.org/2000/svg"><path d="M21.75 1.144l-20.5 20.5m0-20.5l20.5 20.5" stroke="#fff" stroke-width="2" stroke-linecap="round" stroke-linejoin="round"/></svg><svg fill="none" viewBox="0 0 23 22" id="contacts-1" xmlns="http://www.w3.org/2000/svg"><path d="M21.748 1.004H.635v19.842h21.113V1.005z" stroke="#EF7F1A" stroke-width="2" stroke-miterlimit="22.926" stroke-linecap="round" stroke-linejoin="round"/><path d="M7.597 14.591v-9.09h3.41c.695 0 1.251.093 1.669.279.421.181.75.465.986.85.24.38.36.778.36 1.196 0 .388-.106.754-.317 1.097-.21.344-.529.62-.955.831.55.162.972.437 1.265.825.298.389.447.848.447 1.377 0 .426-.091.822-.273 1.19-.178.364-.4.645-.664.844a2.82 2.82 0 01-.998.452c-.397.1-.885.15-1.463.15H7.597zM8.8 9.321h1.966c.533 0 .916-.036 1.147-.106.306-.091.535-.242.688-.453.157-.21.236-.475.236-.793 0-.302-.072-.567-.217-.794a1.08 1.08 0 00-.62-.471c-.269-.087-.73-.13-1.383-.13H8.8V9.32zm0 4.197h2.264c.388 0 .661-.014.818-.043.277-.05.509-.132.695-.248.186-.116.339-.283.459-.502a1.6 1.6 0 00.18-.77c0-.338-.087-.632-.261-.88a1.352 1.352 0 00-.726-.527c-.305-.103-.748-.155-1.327-.155H8.8v3.125z" fill="#EF7F1A"/></svg><svg fill="none" viewBox="0 0 24 22" id="contacts-2" xmlns="http://www.w3.org/2000/svg"><path d="M22.878 1.004H1.765v19.842h21.113V1.005z" stroke="#EF7F1A" stroke-width="2" stroke-miterlimit="22.926" stroke-linecap="round" stroke-linejoin="round"/><path d="M13.65 20.29v-9.456h-1.63V9.398h1.63v-1.16c0-.73.065-1.274.195-1.63.178-.478.489-.865.933-1.159.452-.3 1.08-.451 1.887-.451.52 0 1.094.062 1.723.185l-.277 1.61a6.194 6.194 0 00-1.087-.103c-.56 0-.957.12-1.19.36-.232.238-.348.686-.348 1.343v1.005h2.123v1.436h-2.123v9.455H13.65z" fill="#EF7F1A"/></svg><svg fill="none" viewBox="0 0 24 22" id="contacts-3" xmlns="http://www.w3.org/2000/svg"><path d="M22.96 1.004H1.847v19.842H22.96V1.005z" stroke="#EF7F1A" stroke-width="2" stroke-miterlimit="22.926" stroke-linecap="round" stroke-linejoin="round"/><path d="M12.483 15.132a4.286 4.286 0 100-8.572 4.286 4.286 0 000 8.572zM19.626 5.607a.794.794 0 100-1.587.794.794 0 000 1.587z" stroke="#EF7F1A" stroke-width="2" stroke-miterlimit="22.926" stroke-linecap="round" stroke-linejoin="round"/></svg><svg fill="none" viewBox="0 0 25 22" id="contacts-4" xmlns="http://www.w3.org/2000/svg"><path d="M23.042 1.004H1.929v19.842h21.113V1.005z" stroke="#EF7F1A" stroke-width="2" stroke-miterlimit="22.926" stroke-linecap="round" stroke-linejoin="round"/><path d="M7.803 9.735L18.12 5.448l-3.175 11.43-4.286-2.699-3.016.16 5.397-3.493" stroke="#EF7F1A" stroke-width="2" stroke-miterlimit="22.926" stroke-linecap="round" stroke-linejoin="round"/></svg><svg fill="none" viewBox="0 0 24 22" id="contacts-5" xmlns="http://www.w3.org/2000/svg"><path d="M22.965 1.004H1.853v19.842h21.112V1.005z" stroke="#EF7F1A" stroke-width="2" stroke-miterlimit="22.926" stroke-linecap="round" stroke-linejoin="round"/><path clip-rule="evenodd" d="M10.107 6.4l6.032 4.287-6.032 3.651V6.401z" stroke="#EF7F1A" stroke-width="2" stroke-miterlimit="22.926" stroke-linecap="round" stroke-linejoin="round"/></svg><svg fill="none" viewBox="0 0 23 22" id="contacts-6" xmlns="http://www.w3.org/2000/svg"><path d="M22.365 1.004H1.252v19.842h21.113V1.005z" stroke="#2F2F51" stroke-width="2" stroke-miterlimit="22.926" stroke-linecap="round" stroke-linejoin="round"/><path d="M11.888 10.687a3.016 3.016 0 100-6.032 3.016 3.016 0 000 6.032zM15.222 11.957c-.318.952-1.747 1.587-3.334 1.587-1.746 0-3.175-.635-3.492-1.587" stroke="#2F2F51" stroke-width="2" stroke-miterlimit="22.926" stroke-linecap="round" stroke-linejoin="round"/><path d="M15.539 16.72l-3.651-3.176-3.81 3.493" stroke="#2F2F51" stroke-width="2" stroke-miterlimit="22.926" stroke-linecap="round" stroke-linejoin="round"/></svg><svg fill="none" viewBox="0 0 22 23" id="email" xmlns="http://www.w3.org/2000/svg"><path fill-rule="evenodd" clip-rule="evenodd" d="M22 11.286v9.534c0 .733-.733 1.466-1.467 1.466H2.2c-1.467 0-2.2-.733-2.2-1.466v-9.534l11 5.133 11-5.133zM2.2 10.553h1.467V6.886c0-.733.733-1.467 1.466-1.467H17.6c.733 0 1.467.734 1.467 1.467v3.667h1.466c.734 0 1.467-.734 1.467-1.467V5.42L11 .286 0 5.42v3.667c0 .733.733 1.467 2.2 1.467z" fill="#EF7F1A"/></svg><svg fill="none" viewBox="0 0 73 81" id="fix-problem" xmlns="http://www.w3.org/2000/svg"><path clip-rule="evenodd" d="M6.176 12.048h15.14l.522 1.566-3.132 2.088 2.088 3.132-2.088 3.133 3.132 2.088v1.044H6.176l2.61-6.787-2.61-6.264zM67.257 12.048H51.596l-.522 1.566 2.61 2.088-1.566 3.132 1.566 3.133-2.61 2.088v1.044h16.183l-3.132-6.787 3.132-6.264z" stroke="#EF7F1A" stroke-width="2.088" stroke-miterlimit="22.926" stroke-linecap="round" stroke-linejoin="round"/><path clip-rule="evenodd" d="M36.456 1.084l2.61 2.61 3.655-1.565 1.566 3.132h3.654l.522 3.654 3.133 1.044-.522 3.655 2.61 2.088-1.566 3.132 1.566 3.133-2.61 2.088.522 3.654-3.133 1.045-.522 3.654h-3.654L42.72 35.54l-3.655-1.566-2.61 2.61-2.61-2.61-3.655 1.566-1.566-3.132h-3.654l-.523-3.654-3.654-1.045 1.044-3.654-3.132-2.088 2.088-3.133-2.088-3.132 3.132-2.088-1.044-3.655 3.654-1.044.523-3.654h3.654l1.566-3.132 3.655 1.566 2.61-2.61z" stroke="#EF7F1A" stroke-width="2.088" stroke-miterlimit="22.926" stroke-linecap="round" stroke-linejoin="round"/><path clip-rule="evenodd" d="M36.456 5.783l2.088 2.088 2.088-1.044L42.2 8.915h2.61v2.61l2.61 1.045-.522 2.088 2.088 2.088-1.566 2.088 1.566 2.089-2.088 1.566.522 2.61-2.61 1.044v2.61l-2.61-.521-1.567 2.61-2.088-1.044-2.088 1.566-2.088-1.566-2.089 1.044-1.566-2.088h-2.61v-2.61l-2.61-1.045.522-2.61-2.088-1.566 1.044-2.089-1.044-2.088 2.088-1.566-.522-2.61 2.088-1.044.522-2.61h2.61l1.566-2.089 2.089 1.044 2.088-2.088z" stroke="#EF7F1A" stroke-width="1.044" stroke-miterlimit="22.926" stroke-linecap="round" stroke-linejoin="round"/><path clip-rule="evenodd" d="M33.846 13.614V10.48h6.264v3.133h-1.566v10.441h1.566v2.61h-6.264v-2.61h1.566V13.614h-1.566zM27.58 38.673l1.045 1.566 2.088.522-1.044 1.566v2.088l-2.088-.522-2.088.522v-2.088l-1.044-1.566 1.566-.522 1.566-1.566zM36.978 39.717l1.044 1.566 2.088 1.044-1.044 1.566v2.088l-2.088-.522-2.088.522v-2.088l-1.044-1.566 1.566-1.044 1.566-1.566zM46.375 38.15l1.044 1.567 2.088.522-1.044 1.566v2.088l-2.088-.522-2.088.522v-1.566l-1.044-2.088 1.566-.522 1.566-1.566zM42.199 47.548l1.044 2.088 2.088.522-1.044 1.566v2.088l-2.088-.522-2.089.522v-2.088l-1.044-1.566 2.088-.522 1.044-2.088zM31.757 47.548l1.567 1.566 2.088 1.044-1.566 1.566v2.088l-1.567-.522-2.088.522v-2.088l-1.566-1.566 2.088-.522 1.044-2.088z" stroke="#EF7F1A" stroke-width="1.044" stroke-miterlimit="22.926" stroke-linecap="round" stroke-linejoin="round"/><path clip-rule="evenodd" d="M27.059 69.996c0-2.61 0-6.787-.522-9.397-.522-2.61-1.566-4.176-2.61-5.22-1.045-1.045-1.567-2.089-2.61-3.133-1.045-1.044-2.09-2.088-3.133-3.654-1.566-1.566-3.655-4.177-4.699-5.22-1.566-1.045-2.61-.523-3.132-.523-.522.522-1.044 1.044-.522 1.566 0 .522 0 1.044 1.044 2.61 1.044 1.567 2.088 3.133 2.61 4.7 1.044 1.565 1.044 2.61 1.044 3.131-.522.523-1.044.523-2.088-1.044-1.044-1.566-2.61-4.176-3.654-6.264-1.044-2.089-1.566-3.133-1.566-5.22-.522-2.09-.522-5.222-1.045-7.31 0-1.566-.522-3.132-1.044-3.654-.522-.522-1.566-.522-2.088-.522C2.522 31.364 2 31.886 2 32.408c0 1.044 0 1.566.522 4.698 0 3.133.522 8.875.522 11.486.522 3.132.522 3.132 2.61 5.742 2.089 2.61 5.743 6.787 7.831 9.397 1.567 2.61 1.567 2.61 2.088 3.655v2.61H27.06z" stroke="#EF7F1A" stroke-width="2.088" stroke-miterlimit="22.926" stroke-linecap="round" stroke-linejoin="round"/><path d="M5.654 32.93c.522 0 .522-.522 1.045-.522.522 0 1.044 0 1.566.522l.522.522c0 .522.522 1.044.522 2.61.522 1.567 1.044 4.177 1.566 6.787M9.309 34.496h1.044s.522 0 1.044.522c0 0 .522.523.522 1.044.522.523.522 1.567 1.044 3.133 0 1.044.522 3.132 1.044 5.22M28.625 69.996H12.963v9.92h15.662v-9.92z" stroke="#EF7F1A" stroke-width="2.088" stroke-miterlimit="22.926" stroke-linecap="round" stroke-linejoin="round"/><path clip-rule="evenodd" d="M45.33 69.996c0-2.088 0-6.264.523-9.397.522-2.61 1.566-3.654 2.61-4.698 1.044-1.567 2.088-2.61 3.133-3.133 1.044-1.044 1.566-2.088 3.132-3.654 1.566-2.088 3.654-4.176 4.698-5.22 1.567-1.045 2.61-1.045 3.133-.523.522 0 1.044.522 1.044 1.044-.522.523-.522 1.567-1.566 2.61-.522 1.567-2.088 3.655-2.61 5.221-1.045 1.566-1.045 2.61-1.045 3.133.522.522 1.044.522 2.089-1.044 1.044-1.567 2.61-4.699 3.654-6.787 1.044-2.089 1.566-3.133 1.566-5.22.522-2.089 1.044-4.7 1.044-6.788.522-2.088.522-3.132 1.044-4.176.523-.522 1.567-.522 2.089 0 .522 0 1.044.522 1.044 1.566.522.522 0 1.566 0 4.699-.522 3.132-.522 8.353-1.044 10.963-.522 3.132-.522 3.654-2.61 5.742-2.089 2.61-5.743 7.31-7.831 9.398-1.567 2.61-2.089 2.61-2.089 3.654v2.61H45.331v0z" stroke="#EF7F1A" stroke-width="2.088" stroke-miterlimit="22.926" stroke-linecap="round" stroke-linejoin="round"/><path d="M67.257 32.93h-1.044c-.522-.522-1.044-.522-1.044 0-.522 0-1.044.522-1.044 1.044 0 0 0 .522-.522 2.089-.522 1.566-1.044 4.176-1.566 6.786M63.603 35.018h-1.044-1.044c0 .522-.522.522-.522 1.044-.522 1.044-.522 1.567-1.044 3.133-.523 1.566-.523 3.132-1.045 5.22M59.426 69.996H43.243v9.92h16.183v-9.92z" stroke="#EF7F1A" stroke-width="2.088" stroke-miterlimit="22.926" stroke-linecap="round" stroke-linejoin="round"/></svg><svg fill="none" viewBox="0 0 75 86" id="garant" xmlns="http://www.w3.org/2000/svg"><path clip-rule="evenodd" d="M1 7.49h14.79v3.34h28.151V7.49H59.21v43.418h-1.908c-1.909 0-3.34 0-4.772.477V15.6H15.314l-7.157 6.202V67.13H40.6v.477c0 2.386.477 4.771 1.432 6.68H1V7.489v0z" stroke="#EF7F1A" stroke-width="1.808" stroke-miterlimit="22.926" stroke-linecap="round" stroke-linejoin="round"/><path clip-rule="evenodd" d="M15.79 4.15h8.59v.954h10.496v-.955h9.065v6.68h-28.15V4.15z" stroke="#EF7F1A" stroke-width="1.808" stroke-miterlimit="22.926" stroke-linecap="round" stroke-linejoin="round"/><path d="M34.876 1.764H24.379v3.34h10.497v-3.34z" stroke="#EF7F1A" stroke-width="1.808" stroke-miterlimit="22.926" stroke-linecap="round" stroke-linejoin="round"/><path clip-rule="evenodd" d="M15.314 15.6h37.215v35.785c-6.68 1.908-11.928 8.111-11.928 15.745H8.157V21.803l7.157-6.202v0z" stroke="#EF7F1A" stroke-width="1.808" stroke-miterlimit="22.926" stroke-linecap="round" stroke-linejoin="round"/><path clip-rule="evenodd" d="M15.314 15.6l-7.157 6.203h7.157v-6.202z" stroke="#EF7F1A" stroke-width=".904" stroke-miterlimit="22.926" stroke-linecap="round" stroke-linejoin="round"/><path d="M21.04 28.006h-7.158v6.68h7.157v-6.68zM21.04 41.365h-7.158v6.68h7.157v-6.68zM21.04 53.77h-7.158v6.68h7.157v-6.68zM25.333 30.391h21.948M25.81 32.777h13.36M25.333 43.274h21.948M25.81 45.66h13.36M25.333 56.156h19.562M25.81 58.542h13.36" stroke="#EF7F1A" stroke-width=".904" stroke-miterlimit="22.926" stroke-linecap="round" stroke-linejoin="round"/><path d="M15.314 31.346l1.908 1.908 2.863-3.817M15.314 44.228l1.908 2.386 2.863-3.817M15.314 57.11l1.908 1.909 2.863-3.817" stroke="#EF7F1A" stroke-width=".904" stroke-miterlimit="22.926" stroke-linecap="round" stroke-linejoin="round"/><path d="M57.3 84.306c9.224 0 16.7-7.476 16.7-16.699 0-9.223-7.477-16.7-16.7-16.7-9.222 0-16.699 7.477-16.699 16.7 0 9.223 7.477 16.7 16.7 16.7z" stroke="#EF7F1A" stroke-width="1.808" stroke-miterlimit="22.926"/><path d="M66.843 65.221h-5.248v10.497h5.248V65.221zM61.595 66.176c-.954-.954-2.386-1.909-2.863-2.863-.954-.477-1.431-1.431-1.431-1.909-.477-.477-.477-1.43-.477-1.908-.478-.954-.478-1.431-.478-1.909 0 0 0-.477-.477-.477h-.954c-.477 0-.477 0-.477.477-.477.478-.477.955-.477 1.909-.477.477-.477 1.431 0 2.386 0 .954 0 1.431.477 2.385 0 .477.477.477.477.477 0 .478-.477.478-1.431.478H47.758c0 .477-.477.954-.477.954v.954c.477.477.477.954.954.954v.477c-.477 0-.477 0-.477.477v.478c.477.477.477.954.477.954.477 0 .477 0 .477.477s-.477.477-.477.954.477.477.477.955c.477.477.955.477.955.477v.954s0 .477.477.954c0 0 .477.477 1.908.477 1.432 0 3.817 0 5.726-.477 1.908 0 2.863-.477 3.817-.954" stroke="#EF7F1A" stroke-width=".904" stroke-miterlimit="22.926"/></svg><svg fill="none" viewBox="0 0 31 40" id="geo-icon" xmlns="http://www.w3.org/2000/svg"><g clip-path="url(#apclip0_347_685)"><path fill-rule="evenodd" clip-rule="evenodd" d="M14.624.436c8.181 0 15.454 6.363 15.454 14.545 0 8.182-10.909 23.637-15.454 23.637C10.987 38.617.078 23.163.078 14.98S6.442.436 14.624.436z" fill="#EF7F1A"/><path d="M14.624 27.708c6.527 0 11.818-5.29 11.818-11.818 0-6.527-5.291-11.818-11.818-11.818-6.527 0-11.819 5.291-11.819 11.818 0 6.527 5.292 11.818 11.819 11.818z" fill="#FEFEFE"/><path fill-rule="evenodd" clip-rule="evenodd" d="M21.896 12.254h-5.454l-3.637-2.727-2.727 1.818v-.91H8.26v2.728l-2.727 1.818H8.26v6.364h13.636V14.98h2.728l-2.728-2.727zm-5.454 2.727h4.545v5.455h-4.545V14.98zm-3.637-3.636l3.637 2.727H9.169l3.636-2.727zm-2.727 3.636h5.455v5.455h-5.455V14.98z" fill="#EF7F1A"/><path fill-rule="evenodd" clip-rule="evenodd" d="M21.896 12.254h-5.454l-3.637-2.727-2.727 1.818v-.91H8.26v2.728l-2.727 1.818h19.091l-2.728-2.727zm-9.09-.91l3.636 2.728H9.169l3.636-2.727z" fill="#5B5B5B"/></g><defs><clipPath id="apclip0_347_685"><path fill="#fff" transform="translate(.078 .027)" d="M0 0h30v39H0z"/></clipPath></defs></svg><svg fill="none" viewBox="0 0 20 27" id="location" xmlns="http://www.w3.org/2000/svg"><path fill-rule="evenodd" clip-rule="evenodd" d="M10 .677c5.385 0 10 4.616 10 10 0 5.385-7.692 15.385-10 15.385-3.077 0-10-10-10-15.385 0-5.384 4.615-10 10-10zm0 5.385c2.308 0 4.615 2.308 4.615 4.615 0 3.077-2.307 4.616-4.615 4.616-3.077 0-4.615-1.539-4.615-4.616 0-2.307 1.538-4.615 4.615-4.615z" fill="#EF7F1A"/></svg><svg fill="none" viewBox="0 0 17 17" id="markup" xmlns="http://www.w3.org/2000/svg"><path d="M1.75 8.524l6.5 7 7-14" stroke="#000" stroke-width="2" stroke-linecap="round" stroke-linejoin="round"/></svg><svg fill="none" viewBox="0 0 23 24" id="markup-big" xmlns="http://www.w3.org/2000/svg"><path d="M1.5 15l7 7 13-21" stroke="#2F2F51" stroke-width="2"/></svg><svg fill="none" viewBox="0 0 22 20" id="measurements" xmlns="http://www.w3.org/2000/svg"><path d="M20.714 8.765h-20v10.37h20V8.765zM3.677 8.765v5.926M7.38 8.765v2.222M10.344 8.765v5.926M14.048 8.765v2.222M17.01 8.765v5.926M.714 8.765V1.357M20.714 9.505V1.357M.714 3.58h20M3.677 1.357L.714 3.58l2.963 2.223M17.01 1.357l3.704 2.222-3.703 2.223" stroke="#FEFEFE" stroke-width="1.429" stroke-miterlimit="22.926" stroke-linecap="round" stroke-linejoin="round"/></svg><svg fill="none" viewBox="0 0 25 27" id="phone" xmlns="http://www.w3.org/2000/svg"><path fill-rule="evenodd" clip-rule="evenodd" d="M4.688.411s-.782 0-.782.781c-.781 0-.781.782-1.562.782 0 .78 0 .78-.781.78v1.563H.78V5.88C0 5.88 0 5.88 0 6.662v3.906l.781.782v1.562l.781.781v1.562h.782v.782h.781v.781l.781.782v.78c.781 0 0 0 0 0 .781 0 .781.782 1.563.782l.781 1.563.781.78c.782.782.782 0 .782.782 0 0 .78 0 .78.781l1.563.782v.78H11.72l.781.782c.781 0 .781.781.781.781H15.625l.781.782h1.563l1.562-.782h.782l.78-.78h.782l.781-.782c0-.781 0-.781.782-.781l.78-.782v-1.562-.781h-.78v-.782h-.782v-.78h-.781l-1.563-1.563h-.78l-.782-.782-.781.782h-.782l-.78.78h-.782c0 .782-.781.782-.781 1.563H13.28s-.781 0-.781-.78h-.781l-1.563-1.563c0-.782-1.562-1.563-1.562-2.344h-.781v-.781l-.782-.782v-.78c-.781-.782-.781-1.563-.781-1.563 0-.782.781-.782.781-1.563h.782l.78-.781v-.781c.782-.782 1.563-.782.782-1.563V4.317l-.781-.78-.781-.782v-.781H7.03v-.782s-.781 0-.781-.78H4.687zM12.5 9.786h.781s.781.781 1.563.781h.781c0 .782.781.782.781.782v.78s.782 0 .782.782V14.474l.78.78h2.345v-.78l-.782-.782V12.13v-.781h-.781v-.782h-.781v-.78c-.782 0-.782 0-.782-.782h-.78c0-.781-1.563-.781-1.563-.781h-.781l-.782-.782H12.5v2.344zm0-4.687h1.562v.78H16.407s.782.782 1.563.782l.781.781h.781v.782c.782 0 .782 0 .782.78l.78.782.782 1.563v1.562l.781.781v1.563h.782c.78-.781.78 0 1.562 0V13.692l-.781-.78v-2.345l-.782-.78v-.782c-.78 0-.78-.781-.78-.781v-.782h-.782v-.78h-.781V5.88h-.782v-.781h-.78s-.782 0-.782-.782h-.781-.782v-.78h-2.343v-.782H12.5v2.344z" fill="#EF7F1A"/></svg><svg fill="none" viewBox="0 0 31 21" id="price" xmlns="http://www.w3.org/2000/svg"><path clip-rule="evenodd" d="M11 19.312h14.286c2.857 0 4.285-1.428 4.285-4.285v-10c0-1.429-1.428-4.286-4.285-4.286H11C9.571.74 7.625 1.9 6.714 3.598 3.562 4.339.937 6.303.937 10.589c0 2.857 2.92 5.866 5.777 5.866 1.429 1.429 2.857 2.857 4.286 2.857z" stroke="#EF7F1A" stroke-width="1.429" stroke-miterlimit="22.926"/><path d="M7.955 13.223a2.857 2.857 0 100-5.714 2.857 2.857 0 000 5.714zM16.714 15.027v-10s3.715 0 3.715 2.857-3.286 2.857-3.286 2.857M15.286 13.598h3.286" stroke="#EF7F1A" stroke-width="1.429" stroke-miterlimit="22.926" stroke-linecap="round" stroke-linejoin="round"/></svg><svg fill="none" viewBox="0 0 22 42" id="slider-arrow-left" xmlns="http://www.w3.org/2000/svg"><path d="M21 1L1 21l20 20" stroke="#000"/><path d="M21 1L1 21l20 20" stroke="#8F8F8F"/></svg><svg fill="none" viewBox="0 0 22 42" id="slider-arrow-rigth" xmlns="http://www.w3.org/2000/svg"><path d="M.5 1l20 20-20 20" stroke="#000"/><path d="M.5 1l20 20-20 20" stroke="#000"/></svg><svg fill="none" viewBox="0 0 18 10" id="text-area-bottom" xmlns="http://www.w3.org/2000/svg"><path d="M1 .644l8 8 8-8" stroke="#BABABA"/><path d="M1 .644l8 8 8-8" stroke="#BABABA"/><path d="M1 .644l8 8 8-8" stroke="#2F2F51"/></svg><svg fill="none" viewBox="0 0 18 10" id="text-area-top" xmlns="http://www.w3.org/2000/svg"><path d="M1 9.644l8-8 8 8" stroke="#BABABA"/><path d="M1 9.644l8-8 8 8" stroke="#BABABA"/><path d="M1 9.644l8-8 8 8" stroke="#2F2F51"/></svg><svg fill="none" viewBox="0 0 96 81" id="window" xmlns="http://www.w3.org/2000/svg"><path d="M24.435 0h66.522c.434 0 .869.435.869.87v71.304c0 .435-.435.87-.87.87H24.436c-.435 0-.87-.435-.87-.87V60.87h1.74v10h64.782V2.174H25.304V39.13h-1.739V.87c0-.435.435-.87.87-.87z" fill="#EF7F1A"/><path clip-rule="evenodd" d="M28.348 5.217h58.695v62.609H28.348V60.87h3.043v3.913h21.74V8.26H31.39v30.87h-3.043V5.216z" stroke="#EF7F1A" stroke-width=".87" stroke-miterlimit="22.926" stroke-linecap="round" stroke-linejoin="round"/><path clip-rule="evenodd" d="M31.391 8.261h21.74v56.522H31.39V60.87H44.87c2.173 0 4.347-2.174 4.347-4.783V43.478c0-2.174-2.174-4.347-4.347-4.347H31.39V8.26v0zM55.74 6.522h30v60h-30v-60 0zm2.608 3.043h24.348v53.913H58.348V36.087h-.87c-.434 0-.87-.435-.87-.87 0-.434.436-.87.87-.87h.87V9.566v0z" stroke="#EF7F1A" stroke-width=".87" stroke-miterlimit="22.926" stroke-linecap="round" stroke-linejoin="round"/><path d="M94 72.174H20.087v6.956H94v-6.956z" stroke="#EF7F1A" stroke-width="2.174" stroke-miterlimit="22.926" stroke-linecap="round" stroke-linejoin="round"/><path d="M61.391 34.348H56.61a.87.87 0 00-.87.87v.434c0 .48.39.87.87.87h4.782c.48 0 .87-.39.87-.87v-.434a.87.87 0 00-.87-.87z" stroke="#EF7F1A" stroke-width=".87" stroke-miterlimit="22.926" stroke-linecap="round" stroke-linejoin="round"/><path clip-rule="evenodd" d="M12.696 39.13H44.87c2.173 0 4.347 2.174 4.347 4.348v12.609c0 2.609-2.174 4.782-4.347 4.782H12.696c-1.74 0-3.479-1.739-3.913-3.478C4.87 56.957 1.826 53.913 1.826 50c0-3.478 3.044-6.957 6.957-7.391.434-1.74 2.174-3.479 3.913-3.479v0z" stroke="#EF7F1A" stroke-width="2.174" stroke-miterlimit="22.926"/><path d="M8.783 52.609a2.609 2.609 0 100-5.218 2.609 2.609 0 000 5.218zM36.609 48.696h-3.913v7.826h3.913v-7.826zM32.696 49.565c-.87-.435-2.174-1.304-2.61-1.739-.434-.87-.869-1.304-.869-1.74 0-.434-.434-.869-.434-1.303v-1.305l-.435-.434h-.87s-.435 0-.435.434c-.434 0-.434.435-.434 1.305v1.739c0 .434 0 1.304.434 1.739 0 .435.435.435.435.435h-.87c-.869 0-2.608 0-3.478.434h-.87s-.434.435-.434.87v.435c0 .434.435.434.435.87v.869c0 .435.435.435.435.87h.434l-.434.434v.435c0 .435 0 .435.434.87l.435.434v.435c0 .435 0 .435.435.87 0 0 .435 0 1.304.434 1.305 0 3.044 0 4.348-.434 1.304 0 2.174-.435 3.044-.87" stroke="#EF7F1A" stroke-width=".87" stroke-miterlimit="22.926"/><path d="M9.652 52.174c0-.435 0-1.304-.435-1.74C8.783 50 7.478 50 6.174 50.87c-1.74.87-3.044 3.043-3.044 4.782-.434 2.174.87 4.783 2.61 6.522 2.173 1.304 5.216 2.609 7.39 3.478 2.61.87 4.348 1.74 5.218 2.609 1.304 1.304 1.304 2.609 1.739 3.913" stroke="#EF7F1A" stroke-width=".87" stroke-miterlimit="22.926"/><path d="M12.696 60.87c1.739 1.304 3.043 3.043 3.913 4.348 1.304 1.304 2.608 2.173 3.043 3.043.435 1.304.435 2.609.435 3.913" stroke="#EF7F1A" stroke-width=".87" stroke-miterlimit="22.926"/></svg></svg>