<?xml version="1.0" standalone="no"?>
<!DOCTYPE svg PUBLIC "-//W3C//DTD SVG 20010904//EN"
 "http://www.w3.org/TR/2001/REC-SVG-20010904/DTD/svg10.dtd">
<svg version="1.0" xmlns="http://www.w3.org/2000/svg"
 width="720.000000pt" height="720.000000pt" viewBox="0 0 720.000000 720.000000"
 preserveAspectRatio="xMidYMid meet">
<metadata>
Created by potrace 1.14, written by Peter Selinger 2001-2017
</metadata>
<g transform="translate(0.000000,720.000000) scale(0.100000,-0.100000)"
fill="#000000" stroke="none">
<path d="M3280 6063 c-36 -30 -79 -67 -96 -82 -18 -14 -52 -43 -75 -63 -24
-20 -78 -65 -119 -99 -41 -34 -84 -70 -95 -80 -11 -10 -41 -35 -66 -56 -71
-59 -247 -206 -344 -288 -22 -19 -50 -42 -62 -52 -12 -10 -40 -34 -63 -53 -23
-19 -48 -41 -55 -48 -8 -6 -16 -9 -18 -5 -3 5 -5 112 -5 238 0 127 -1 246 -1
266 l-1 36 -468 0 -468 0 0 -669 1 -669 -80 -67 c-108 -90 -136 -114 -154
-132 -9 -8 -36 -31 -61 -50 -25 -19 -52 -42 -60 -50 -19 -18 -78 -68 -134
-113 -34 -27 -112 -93 -226 -190 -14 -12 -52 -44 -85 -71 -33 -28 -65 -55 -71
-61 -6 -5 -25 -21 -43 -35 -18 -14 -40 -32 -49 -41 -10 -9 -37 -33 -62 -54
-105 -86 -134 -111 -146 -122 -7 -7 -18 -13 -25 -13 -7 0 -9 -3 -6 -7 4 -3 -6
-16 -22 -27 -54 -40 -111 -89 -111 -95 0 -3 300 -6 668 -6 l667 0 0 -1100 0
-1100 531 -2 531 -2 96 169 c54 94 97 174 97 180 0 5 3 10 8 10 4 0 15 18 25
40 9 22 21 40 25 40 9 0 112 -175 112 -191 0 -5 5 -9 10 -9 6 0 10 -4 10 -9 0
-5 21 -47 48 -93 26 -46 53 -95 61 -111 l14 -27 179 0 c193 0 193 0 160 55
-10 17 -36 62 -57 100 -54 97 -71 128 -145 257 -35 62 -69 122 -75 133 -6 11
-23 41 -38 68 -15 26 -39 68 -53 95 -15 26 -30 52 -34 57 -4 6 46 102 111 215
65 113 118 210 118 217 1 6 4 13 9 15 4 2 17 21 28 43 12 22 53 96 92 165 39
68 69 126 67 128 -3 3 -214 5 -315 3 -45 -1 -45 -2 -75 -61 -16 -33 -32 -60
-35 -60 -3 0 -16 -25 -30 -55 -14 -30 -28 -55 -32 -55 -5 0 -8 -4 -8 -9 0 -12
-98 -181 -116 -201 -12 -12 -14 -12 -14 2 0 8 -9 27 -21 42 -11 14 -17 26 -13
26 4 0 0 8 -8 18 -9 9 -28 40 -43 67 -14 28 -36 66 -47 85 -11 19 -33 58 -47
85 -22 41 -54 95 -68 114 -7 10 -353 6 -353 -4 0 -5 8 -23 18 -40 10 -16 33
-57 51 -90 18 -33 50 -89 71 -125 20 -36 51 -90 67 -120 17 -30 40 -73 53 -95
133 -234 163 -290 163 -299 0 -6 -31 -65 -68 -131 -38 -66 -82 -145 -98 -175
-16 -30 -35 -62 -42 -70 -6 -8 -24 -41 -40 -72 -22 -43 -35 -57 -55 -60 -14
-2 -144 -3 -290 -3 l-265 1 -3 1102 -2 1102 -23 1 c-12 0 -210 0 -441 0 l-418
0 33 29 c99 85 118 101 195 165 73 61 256 214 284 238 22 19 72 61 169 142 14
11 32 27 40 35 9 8 36 31 61 50 25 19 57 47 72 61 l28 26 0 597 c0 470 3 596
13 597 12 0 307 0 362 -1 l30 0 0 -425 c0 -234 2 -425 5 -425 3 0 24 16 45 35
54 49 57 51 165 140 52 43 102 84 110 92 8 7 25 21 36 31 12 9 43 35 69 57 75
64 81 68 120 99 20 16 50 41 66 55 34 31 37 34 131 112 40 33 95 79 122 102
46 39 64 55 140 118 16 13 34 29 40 34 6 6 65 55 131 110 66 54 126 105 133
112 13 13 42 -2 92 -47 60 -54 102 -90 145 -125 28 -22 55 -44 61 -50 7 -5 31
-26 54 -45 23 -19 51 -43 63 -53 12 -11 42 -35 66 -55 24 -21 60 -51 80 -68
20 -17 79 -67 131 -110 52 -44 106 -88 119 -99 13 -11 35 -30 48 -42 13 -11
43 -36 65 -55 48 -38 168 -138 184 -153 6 -5 41 -35 77 -65 l66 -55 1111 -1
c1002 0 1110 1 1106 15 -3 9 -10 43 -17 76 -15 77 -20 101 -35 157 -4 15 -25
17 -197 17 -106 -1 -195 0 -199 1 -10 3 -46 3 -55 0 -11 -2 -846 -2 -858 0 -6
1 -14 2 -20 0 -5 -1 -131 -1 -280 0 -306 1 -281 1 -339 -1 -24 -1 -48 1 -54 5
-6 3 -13 2 -16 -3 -13 -20 -64 8 -140 74 -43 38 -175 149 -219 185 -10 8 -28
23 -40 34 -12 10 -42 35 -67 55 -25 20 -47 39 -50 42 -3 3 -34 30 -70 60 -73
60 -107 89 -124 104 -10 9 -278 233 -335 280 -13 11 -32 27 -41 35 -16 16
-239 203 -275 231 -19 16 -23 14 -85 -38z"/>
<path d="M2477 4483 c-2 -1 -25 -5 -52 -8 -28 -4 -53 -9 -58 -12 -4 -2 -19 -6
-32 -9 -90 -16 -209 -104 -246 -182 -27 -54 -27 -53 -37 -112 -13 -77 -7 -952
7 -977 6 -13 9 -23 6 -23 -13 0 42 -87 80 -126 37 -38 135 -102 135 -88 0 4 6
2 13 -3 12 -10 76 -27 147 -39 19 -3 82 -6 140 -6 190 0 337 48 425 136 97 99
101 124 99 666 -1 245 -4 459 -8 477 -32 161 -176 272 -390 300 -34 4 -226 10
-229 6z m203 -270 c34 -15 56 -42 67 -83 5 -19 9 -224 8 -455 -2 -474 0 -467
-76 -506 -75 -38 -208 -22 -251 29 -32 39 -35 70 -34 502 1 477 0 466 61 506
47 31 157 34 225 7z"/>
<path d="M3330 3696 c0 -610 3 -775 13 -778 6 -2 84 -3 172 -3 l160 1 1 242
c1 189 5 244 15 255 8 8 23 27 34 43 11 15 29 39 40 52 l21 24 26 -48 c47 -90
111 -209 129 -239 10 -16 34 -59 52 -95 80 -152 127 -230 140 -231 30 -3 333
-4 339 -1 4 1 -19 49 -51 105 -32 56 -73 129 -91 162 -18 33 -44 77 -57 97
-12 21 -23 39 -23 42 0 2 -31 57 -68 122 -38 66 -82 144 -99 174 -16 30 -42
76 -57 103 -23 40 -25 50 -15 70 13 24 191 289 199 297 3 3 44 61 90 130 46
69 101 150 122 180 21 30 38 58 38 63 0 4 -76 7 -169 6 l-170 0 -70 -100 c-39
-55 -71 -102 -71 -105 0 -2 -7 -12 -15 -21 -22 -27 -264 -377 -268 -388 -3 -5
-8 -7 -12 -3 -9 9 -11 241 -1 256 4 7 4 12 -1 12 -4 0 -8 79 -7 175 l1 174
-173 0 -174 1 0 -774z"/>
<path d="M4639 4456 c-4 -61 -1 -1525 4 -1532 3 -6 76 -10 174 -9 l168 0 1
135 1 135 199 3 199 2 0 -137 0 -138 173 -1 172 -1 0 56 c1 74 1 1461 0 1482
0 14 -21 16 -174 15 l-174 -1 0 -475 c0 -261 -1 -489 -1 -506 l-1 -30 -195 0
c-190 0 -195 0 -196 20 0 12 -1 240 -1 507 l-1 486 -174 -1 c-115 0 -173 -3
-174 -10z"/>
<path d="M6249 4448 c-5 -10 -8 -18 -5 -18 3 0 0 -15 -5 -32 -10 -34 -27 -107
-33 -143 -2 -11 -9 -40 -16 -65 -7 -25 -14 -56 -16 -70 -3 -14 -7 -33 -10 -42
-3 -10 -7 -30 -10 -45 -3 -16 -10 -46 -16 -68 -5 -22 -11 -47 -13 -55 -7 -34
-58 -263 -85 -377 -16 -67 -32 -134 -35 -150 -3 -15 -8 -39 -11 -53 -3 -14
-14 -61 -24 -105 -24 -97 -39 -163 -44 -190 -3 -11 -9 -40 -15 -65 -6 -25 -11
-47 -11 -50 0 -9 308 -6 316 3 5 4 10 20 11 35 2 15 8 41 13 57 9 29 14 55 26
125 3 19 8 37 11 40 10 11 433 6 434 -4 0 -6 2 -18 4 -26 2 -8 11 -49 20 -90
8 -41 20 -91 25 -111 l10 -35 167 0 c93 0 171 4 174 9 4 5 1 28 -7 52 -7 24
-15 60 -18 80 -4 21 -8 40 -10 44 -3 3 -7 25 -11 48 l-6 41 33 0 c66 -1 70 0
59 21 -6 10 -8 21 -5 24 3 3 2 12 -2 19 -5 7 -10 22 -11 33 -2 11 -11 53 -20
93 -18 78 -12 72 -90 75 -29 1 -32 9 -57 122 -2 11 -14 63 -26 115 -11 52 -28
124 -36 160 -8 36 -19 83 -25 105 -9 38 -14 61 -25 115 -3 14 -9 41 -14 60 -5
19 -11 46 -14 60 -2 14 -7 32 -10 40 -3 8 -7 31 -10 50 -3 19 -14 69 -24 110
l-19 75 -252 1 c-235 1 -253 0 -262 -18z m276 -408 c2 -14 7 -35 10 -47 3 -13
7 -33 10 -45 2 -13 9 -41 14 -63 14 -56 89 -386 93 -410 3 -19 -3 -20 -161
-22 l-163 -3 6 38 c7 43 7 43 41 187 14 61 27 119 29 130 1 11 7 36 11 55 5
19 9 37 10 40 1 3 4 19 8 35 4 17 9 39 11 50 9 44 37 161 43 180 6 19 11 3 38
-125z"/>
<path d="M6544 2674 c-5 -2 -45 -5 -89 -7 -92 -6 -120 -11 -190 -34 -27 -10
-53 -16 -57 -15 -5 1 -8 -2 -8 -7 0 -5 -10 -13 -22 -17 -34 -10 -111 -93 -135
-145 -12 -25 -25 -66 -28 -90 -12 -75 -7 -946 6 -992 26 -98 82 -167 174 -215
60 -31 51 -28 155 -51 60 -12 118 -17 200 -15 271 5 427 96 485 284 13 42 14
280 1 282 -33 4 -316 3 -317 -2 0 -3 -2 -55 -3 -115 -2 -106 -3 -112 -30 -143
-81 -91 -291 -65 -322 39 -6 21 -8 205 -7 459 3 459 2 450 15 450 4 0 8 5 8
11 0 17 37 47 74 59 43 14 154 7 192 -13 51 -26 66 -60 70 -151 1 -45 3 -83 3
-86 1 -4 74 -6 164 -5 l162 0 -1 95 c-1 113 -8 151 -36 207 -39 78 -120 144
-218 177 -57 19 -223 46 -246 40z"/>
<path d="M3720 2645 c-4 -5 -10 -23 -13 -40 -3 -16 -9 -48 -15 -70 -6 -22 -13
-51 -15 -65 -3 -14 -10 -43 -16 -65 -6 -22 -12 -51 -15 -65 -2 -14 -5 -25 -6
-25 -1 0 -3 -11 -5 -25 -6 -33 -13 -65 -15 -65 -1 0 -3 -9 -5 -20 -1 -11 -8
-42 -15 -70 -18 -75 -21 -88 -26 -115 -2 -14 -7 -32 -10 -40 -3 -8 -7 -26 -9
-40 -2 -14 -13 -66 -25 -115 -37 -160 -42 -180 -47 -205 -3 -14 -6 -29 -7 -35
-24 -94 -58 -241 -62 -265 -3 -14 -7 -33 -10 -42 -5 -16 -9 -37 -19 -88 -3
-14 -9 -39 -14 -56 l-9 -31 164 -1 c90 0 163 3 162 6 -1 4 4 32 10 63 7 30 15
66 17 80 3 13 8 35 11 49 3 14 8 37 11 53 3 15 10 27 17 28 58 4 391 3 404 -2
9 -3 17 -10 17 -15 1 -5 4 -18 7 -29 4 -11 9 -37 13 -59 3 -21 7 -41 9 -45 2
-3 7 -24 10 -45 15 -93 -4 -85 189 -83 165 2 172 3 173 22 0 11 -3 29 -7 41
-4 11 -10 36 -13 55 -3 19 -13 59 -21 89 -22 80 -22 80 36 80 45 0 50 2 44 19
-3 10 -8 32 -10 47 -3 16 -13 64 -23 106 -11 43 -17 80 -14 83 6 5 1 6 -58 10
-55 4 -56 4 -58 23 -3 31 -7 47 -16 60 -4 7 -5 16 -2 19 3 3 1 14 -5 25 -6 11
-13 35 -15 53 -2 18 -17 88 -33 156 -17 68 -32 135 -35 149 -3 14 -17 77 -31
140 -15 63 -28 122 -30 130 -2 8 -12 53 -23 100 -11 47 -23 99 -26 115 l-7 30
-250 0 c-155 0 -254 -4 -259 -10z m247 -308 c1 -7 5 -28 8 -47 4 -19 15 -75
26 -125 33 -148 70 -319 74 -340 7 -41 16 -81 26 -119 7 -25 7 -41 1 -45 -6
-3 -75 -6 -154 -6 -119 0 -143 3 -144 15 0 8 2 20 5 25 3 6 6 16 7 23 2 7 16
80 34 161 17 82 32 157 35 167 2 11 9 42 15 69 6 28 14 61 16 75 3 13 12 55
20 93 8 37 14 71 14 74 0 10 14 -7 17 -20z"/>
<path d="M4653 2644 c-3 -8 19 -68 67 -179 4 -11 40 -101 80 -200 39 -99 78
-194 86 -212 8 -17 14 -34 14 -38 0 -3 10 -27 21 -53 12 -25 22 -51 24 -57 1
-5 8 -23 15 -40 24 -56 38 -90 65 -160 14 -38 30 -79 35 -90 5 -11 18 -42 30
-70 31 -70 35 -109 15 -139 -23 -34 -69 -45 -188 -43 l-98 2 5 -30 c4 -16 8
-39 11 -50 2 -11 12 -51 20 -90 9 -38 17 -76 18 -82 1 -16 -4 -15 92 -17 149
-4 314 45 395 117 41 37 119 154 125 187 0 3 14 43 30 90 16 47 30 87 30 90 0
3 11 37 24 75 13 39 24 75 25 80 2 10 150 464 188 580 11 33 21 65 22 70 1 6
17 55 35 110 18 55 34 107 36 115 2 8 6 22 9 30 5 13 -18 15 -176 15 l-182 -1
-7 -25 c-7 -23 -37 -131 -79 -279 -10 -36 -35 -123 -55 -195 -21 -71 -38 -134
-39 -140 -1 -5 -4 -14 -8 -20 -3 -5 -9 -26 -13 -45 -4 -19 -12 -46 -17 -60 -9
-23 -11 -21 -34 40 -13 36 -28 74 -34 85 -13 29 -60 151 -60 157 0 3 -9 26
-20 52 -12 25 -20 47 -19 48 1 2 -7 21 -18 43 -12 22 -22 45 -23 50 -5 20 -12
41 -25 70 -32 73 -65 157 -65 168 0 7 -7 21 -15 32 -14 18 -28 19 -176 20
-105 0 -163 -4 -166 -11z"/>
</g>
</svg>
